<svg width="84" height="84" fill="none" xmlns="http://www.w3.org/2000/svg">
    <path d="M62.476 42.865a20.769 20.769 0 0 1-3.074 10.082 20.676 20.676 0 0 1-7.62 7.259l-1.343-5.387c4.635-2.87 6.142-5.18 6.628-10.607l5.41-1.347Zm-2.54-10.835-5.161 1.274c-2.86-4.651-5.358-6.143-10.788-6.63l-1.31-5.376a20.595 20.595 0 0 1 10.047 3.084 20.687 20.687 0 0 1 7.233 7.648h-.02ZM41.16 62.712a20.596 20.596 0 0 1-10.048-3.084 20.689 20.689 0 0 1-7.233-7.647l5.347-1.337c2.86 4.652 5.162 6.216 10.602 6.734l1.332 5.334Zm-7.825-33.614c-4.646 2.86-6.112 5.46-6.597 10.898L21.38 41.32a21.029 21.029 0 0 1 3.056-10.144 20.936 20.936 0 0 1 7.608-7.352l1.29 5.273Zm42.614 2.631 4.883-5.335-1.435-3.408-7.226-.145-3.16 1.45a31.78 31.78 0 0 0-4.397-5.396l1.9-2.61 1.62-7.055-2.91-2.258-6.308 3.387-2.065 2.828a34.99 34.99 0 0 0-2.591-1.223 34.244 34.244 0 0 0-3.882-1.315l.372-3.201-2.065-6.95L45.082 0 41.23 6.101l-.392 3.47a32.24 32.24 0 0 0-8.713 1.513l-1.425-2.9-5.46-4.724-3.346 1.533.063 7.251 1.538 3.108a31.845 31.845 0 0 0-5.255 4.558l-2.653-1.813-7.082-1.43-2.157 3.015 3.592 6.215 2.88 1.979c-.278.57-.547 1.15-.784 1.74a32.42 32.42 0 0 0-1.559 4.827l-3.2-.28-6.865 2.248L0 40.078l6.194 3.678 3.458.3a32.648 32.648 0 0 0 1.198 6.868l-2.932 1.347-4.883 5.335 1.435 3.397 7.226.156 3.17-1.45a32.715 32.715 0 0 0 4.397 5.396l-1.889 2.61-1.631 7.055 2.911 2.258 6.338-3.418 2.065-2.828c.836.435 1.704.84 2.591 1.212a31.73 31.73 0 0 0 3.882 1.316l-.372 3.221 2.065 6.94 3.644.529 3.85-6.112.403-3.46a31.664 31.664 0 0 0 6.7-.953 33.783 33.783 0 0 0 2.002-.559l1.425 2.89 5.461 4.734 3.334-1.533v-7.251l-1.538-3.108a33.224 33.224 0 0 0 5.255-4.558l2.653 1.813 7.071 1.43 2.158-2.994-3.582-6.215-2.88-1.969a31.874 31.874 0 0 0 2.333-6.568l3.21.28 6.865-2.247.413-3.667-6.194-3.688-3.458-.29a32.652 32.652 0 0 0-1.198-6.868l2.798-1.378Z" fill="#AD131B"/>
</svg>
