<svg width="331" height="331" viewBox="0 0 331 331" fill="none" xmlns="http://www.w3.org/2000/svg">
<rect width="331" height="331" fill="#AD131B"/>
<path fill-rule="evenodd" clip-rule="evenodd" d="M253.86 157.94C255.997 160.078 257.198 162.977 257.198 166C257.198 169.023 255.997 171.922 253.86 174.06L174.06 253.86C171.922 255.997 169.023 257.198 166 257.198C162.977 257.198 160.078 255.997 157.94 253.86L78.1402 174.06C77.08 173.003 76.2392 171.746 75.666 170.363C75.0927 168.98 74.7984 167.497 74.8 166V109C74.8 99.9296 78.4032 91.2307 84.8169 84.8169C91.2307 78.4032 99.9296 74.8 109 74.8H166C168.918 74.8 171.837 75.9172 174.06 78.1402L253.86 157.94ZM109 120.4C112.023 120.4 114.923 119.199 117.061 117.061C119.199 114.923 120.4 112.023 120.4 109C120.4 105.977 119.199 103.077 117.061 100.939C114.923 98.8011 112.023 97.6 109 97.6C105.977 97.6 103.077 98.8011 100.939 100.939C98.8011 103.077 97.6 105.977 97.6 109C97.6 112.023 98.8011 114.923 100.939 117.061C103.077 119.199 105.977 120.4 109 120.4Z" fill="white"/>
</svg>
