<svg width="64" height="64" fill="currentColor" viewBox="0 0 64 64" xmlns="http://www.w3.org/2000/svg">
    <path d="M28 44H22V20H36V25C36 25.6 36.4 26 37 26H42V28L44 26V23.8C44 23.2 43.8 22.8 43.4 22.4L39.6 18.6C39.2 18.2 38.8 18 38.2 18H21C20.4 18 20 18.4 20 19V45C20 45.6 20.4 46 21 46H28V44ZM38 20L42 24H38V20ZM42 43V44H41L39 46H43C43.6 46 44 45.6 44 45V41L42 43ZM44.4 30.4L47.6 33.6C47.8 33.8 47.8 34.2 47.6 34.4L45 37L41 33L43.6 30.4C43.8 30.2 44.2 30.2 44.4 30.4V30.4ZM30.2 43.8L40 34L44 38L34.2 47.8C34 48 34 48 33.8 48H30V44.2C30 44 30 44 30.2 43.8Z"/>
</svg>
