<svg width="331" height="331" viewBox="0 0 331 331" fill="none" xmlns="http://www.w3.org/2000/svg">
    <rect width="331" height="331" fill="#AD131B"/>
    <path fill-rule="evenodd" clip-rule="evenodd" d="M113.035 102.335C127.082 88.2879 146.134 80.3962 166 80.3962C185.866 80.3962 204.918 88.2879 218.965 102.335C233.012 116.382 240.904 135.434 240.904 155.3C240.904 175.166 233.012 194.218 218.965 208.265L166 261.23L113.035 208.265C106.079 201.31 100.561 193.053 96.7968 183.965C93.0322 174.877 91.0946 165.137 91.0946 155.3C91.0946 145.463 93.0322 135.723 96.7968 126.635C100.561 117.548 106.079 109.29 113.035 102.335ZM166 176.7C171.676 176.7 177.119 174.445 181.132 170.432C185.145 166.419 187.4 160.976 187.4 155.3C187.4 149.624 185.145 144.181 181.132 140.168C177.119 136.155 171.676 133.9 166 133.9C160.324 133.9 154.881 136.155 150.868 140.168C146.855 144.181 144.6 149.624 144.6 155.3C144.6 160.976 146.855 166.419 150.868 170.432C154.881 174.445 160.324 176.7 166 176.7Z" fill="white"/>
</svg>
