<svg width="331" height="331" viewBox="0 0 331 331" fill="none" xmlns="http://www.w3.org/2000/svg">
    <rect width="331" height="331" fill="#AD131B"/>
    <path fill-rule="evenodd" clip-rule="evenodd" d="M119.7 119.7V108.25C119.7 99.1398 123.319 90.4028 129.761 83.9609C136.203 77.519 144.94 73.9 154.05 73.9H176.95C186.06 73.9 194.797 77.519 201.239 83.9609C207.681 90.4028 211.3 99.1398 211.3 108.25V119.7H234.2C240.273 119.7 246.098 122.113 250.393 126.407C254.687 130.702 257.1 136.527 257.1 142.6V183.477C227.784 194.34 196.764 199.884 165.5 199.85C134.236 199.885 103.216 194.34 73.9 183.477V142.6C73.9 136.527 76.3127 130.702 80.6072 126.407C84.9018 122.113 90.7265 119.7 96.8 119.7H119.7ZM142.6 108.25C142.6 105.213 143.806 102.301 145.954 100.154C148.101 98.0064 151.013 96.8 154.05 96.8H176.95C179.987 96.8 182.899 98.0064 185.046 100.154C187.194 102.301 188.4 105.213 188.4 108.25V119.7H142.6V108.25ZM154.05 165.5C154.05 162.463 155.256 159.551 157.404 157.404C159.551 155.256 162.463 154.05 165.5 154.05H165.615C168.651 154.05 171.564 155.256 173.711 157.404C175.858 159.551 177.065 162.463 177.065 165.5C177.065 168.537 175.858 171.449 173.711 173.596C171.564 175.744 168.651 176.95 165.615 176.95H165.5C162.463 176.95 159.551 175.744 157.404 173.596C155.256 171.449 154.05 168.537 154.05 165.5Z" fill="white"/>
    <path d="M73.9 207.773V234.2C73.9 240.274 76.3127 246.098 80.6072 250.393C84.9018 254.687 90.7265 257.1 96.8 257.1H234.2C240.273 257.1 246.098 254.687 250.393 250.393C254.687 246.098 257.1 240.274 257.1 234.2V207.773C227.586 217.721 196.645 222.78 165.5 222.75C133.486 222.75 102.674 217.483 73.9 207.773Z" fill="white"/>
</svg>
