<svg width="331" height="331" viewBox="0 0 331 331" fill="none" xmlns="http://www.w3.org/2000/svg">
    <rect width="331" height="331" fill="#AD131B"/>
    <path fill-rule="evenodd" clip-rule="evenodd" d="M165.5 153.05C175.406 153.05 184.906 149.115 191.91 142.11C198.915 135.106 202.85 125.606 202.85 115.7C202.85 105.794 198.915 96.294 191.91 89.2895C184.906 82.2851 175.406 78.35 165.5 78.35C155.594 78.35 146.094 82.2851 139.09 89.2895C132.085 96.294 128.15 105.794 128.15 115.7C128.15 125.606 132.085 135.106 139.09 142.11C146.094 149.115 155.594 153.05 165.5 153.05ZM78.35 265.1C78.35 253.655 80.6042 242.323 84.9839 231.749C89.3636 221.176 95.783 211.568 103.876 203.476C111.968 195.383 121.576 188.964 132.149 184.584C142.723 180.204 154.055 177.95 165.5 177.95C176.945 177.95 188.277 180.204 198.851 184.584C209.424 188.964 219.032 195.383 227.124 203.476C235.217 211.568 241.636 221.176 246.016 231.749C250.396 242.323 252.65 253.655 252.65 265.1H78.35Z" fill="white"/>
</svg>
