<svg width="331" height="331" viewBox="0 0 331 331" fill="none" xmlns="http://www.w3.org/2000/svg">
    <rect width="331" height="331" fill="#AD131B"/>
    <path fill-rule="evenodd" clip-rule="evenodd" d="M165 274C193.643 274 221.114 262.621 241.368 242.368C261.621 222.114 273 194.643 273 166C273 137.357 261.621 109.886 241.368 89.6325C221.114 69.3785 193.643 58 165 58C136.357 58 108.886 69.3785 88.6325 89.6325C68.3785 109.886 57 137.357 57 166C57 194.643 68.3785 222.114 88.6325 242.368C108.886 262.621 136.357 274 165 274V274ZM178.5 112C178.5 108.42 177.078 104.986 174.546 102.454C172.014 99.9223 168.58 98.5 165 98.5C161.42 98.5 157.986 99.9223 155.454 102.454C152.922 104.986 151.5 108.42 151.5 112V166C151.501 169.58 152.924 173.013 155.456 175.544L193.634 213.736C194.888 214.99 196.377 215.985 198.016 216.664C199.654 217.343 201.411 217.692 203.185 217.692C204.959 217.692 206.715 217.343 208.354 216.664C209.993 215.985 211.482 214.99 212.736 213.736C213.99 212.482 214.985 210.993 215.664 209.354C216.343 207.715 216.692 205.959 216.692 204.185C216.692 202.411 216.343 200.654 215.664 199.016C214.985 197.377 213.99 195.888 212.736 194.634L178.5 160.411V112Z" fill="white"/>
</svg>
